<?xml version="1.0" encoding="UTF-8"?>
<!DOCTYPE svg PUBLIC "-//W3C//DTD SVG 1.1//EN" "http://www.w3.org/Graphics/SVG/1.1/DTD/svg11.dtd">
<!-- Creator: CorelDRAW 2021.5 -->
<svg xmlns="http://www.w3.org/2000/svg" xml:space="preserve" width="30mm" height="8mm" version="1.1" style="shape-rendering:geometricPrecision; text-rendering:geometricPrecision; image-rendering:optimizeQuality; fill-rule:evenodd; clip-rule:evenodd"
viewBox="0 0 3000 800"
 xmlns:xlink="http://www.w3.org/1999/xlink"
 xmlns:xodm="http://www.corel.com/coreldraw/odm/2003">
 <defs>
  <style type="text/css">
   <![CDATA[
    .fil3 {fill:none}
    .fil1 {fill:#1A3D76}
    .fil0 {fill:#AD1E22}
    .fil2 {fill:#FEFEFE;fill-rule:nonzero}
    .fil41 {fill:#FDFDFD;fill-rule:nonzero}
    .fil18 {fill:#FBFBFB;fill-rule:nonzero}
    .fil98 {fill:#FAFAFA;fill-rule:nonzero}
    .fil60 {fill:#F9F9F9;fill-rule:nonzero}
    .fil19 {fill:#F8F8F8;fill-rule:nonzero}
    .fil80 {fill:#F7F7F7;fill-rule:nonzero}
    .fil42 {fill:whitesmoke;fill-rule:nonzero}
    .fil17 {fill:#F4F4F5;fill-rule:nonzero}
    .fil97 {fill:#F3F3F4;fill-rule:nonzero}
    .fil105 {fill:#F2F3F3;fill-rule:nonzero}
    .fil20 {fill:#F1F2F2;fill-rule:nonzero}
    .fil61 {fill:#F1F1F2;fill-rule:nonzero}
    .fil99 {fill:#F0F0F1;fill-rule:nonzero}
    .fil16 {fill:#EFEFF0;fill-rule:nonzero}
    .fil110 {fill:#EEEFEF;fill-rule:nonzero}
    .fil96 {fill:#EDEEEF;fill-rule:nonzero}
    .fil79 {fill:#ECEDEE;fill-rule:nonzero}
    .fil21 {fill:#ECECED;fill-rule:nonzero}
    .fil118 {fill:#EBECEC;fill-rule:nonzero}
    .fil62 {fill:#EAEBEC;fill-rule:nonzero}
    .fil15 {fill:#E9EAEB;fill-rule:nonzero}
    .fil81 {fill:#E8E8E9;fill-rule:nonzero}
    .fil59 {fill:#E7E8E8;fill-rule:nonzero}
    .fil78 {fill:#E6E7E8;fill-rule:nonzero}
    .fil22 {fill:#E5E6E7;fill-rule:nonzero}
    .fil14 {fill:#E3E4E5;fill-rule:nonzero}
    .fil109 {fill:#E3E4E5;fill-rule:nonzero}
    .fil82 {fill:#E2E3E4;fill-rule:nonzero}
    .fil111 {fill:#E0E1E2;fill-rule:nonzero}
    .fil23 {fill:#DFE0E2;fill-rule:nonzero}
    .fil13 {fill:#DFE0E1;fill-rule:nonzero}
    .fil43 {fill:#DDDEDF;fill-rule:nonzero}
    .fil63 {fill:#DCDDDF;fill-rule:nonzero}
    .fil40 {fill:#DBDDDE;fill-rule:nonzero}
    .fil108 {fill:#DBDCDD;fill-rule:nonzero}
    .fil24 {fill:#DADBDC;fill-rule:nonzero}
    .fil12 {fill:#D9DADC;fill-rule:nonzero}
    .fil77 {fill:#D8D9DB;fill-rule:nonzero}
    .fil44 {fill:#D7D9DA;fill-rule:nonzero}
    .fil58 {fill:#D7D8D9;fill-rule:nonzero}
    .fil64 {fill:#D6D7D9;fill-rule:nonzero}
    .fil100 {fill:#D5D6D8;fill-rule:nonzero}
    .fil25 {fill:#D4D5D7;fill-rule:nonzero}
    .fil11 {fill:#D3D5D6;fill-rule:nonzero}
    .fil83 {fill:#D3D4D5;fill-rule:nonzero}
    .fil45 {fill:#D2D3D5;fill-rule:nonzero}
    .fil95 {fill:#D0D2D3;fill-rule:nonzero}
    .fil65 {fill:#CFD1D2;fill-rule:nonzero}
    .fil10 {fill:#CFD0D2;fill-rule:nonzero}
    .fil84 {fill:#CECFD1;fill-rule:nonzero}
    .fil106 {fill:#CDCED0;fill-rule:nonzero}
    .fil46 {fill:#CCCECF;fill-rule:nonzero}
    .fil39 {fill:#CBCDCF;fill-rule:nonzero}
    .fil94 {fill:#CACCCE;fill-rule:nonzero}
    .fil9 {fill:#C9CBCC;fill-rule:nonzero}
    .fil66 {fill:#C8CACC;fill-rule:nonzero}
    .fil101 {fill:#C7C9CB;fill-rule:nonzero}
    .fil47 {fill:#C6C8CA;fill-rule:nonzero}
    .fil112 {fill:#C6C7C9;fill-rule:nonzero}
    .fil93 {fill:#C5C7C8;fill-rule:nonzero}
    .fil76 {fill:#C4C6C8;fill-rule:nonzero}
    .fil8 {fill:#C3C5C7;fill-rule:nonzero}
    .fil26 {fill:#C2C4C6;fill-rule:nonzero}
    .fil67 {fill:#C2C3C5;fill-rule:nonzero}
    .fil48 {fill:#C1C3C5;fill-rule:nonzero}
    .fil117 {fill:#C0C2C4;fill-rule:nonzero}
    .fil92 {fill:#BFC1C3;fill-rule:nonzero}
    .fil7 {fill:#BEC0C2;fill-rule:nonzero}
    .fil75 {fill:#BEBFC1;fill-rule:nonzero}
    .fil27 {fill:#BDBFC1;fill-rule:nonzero}
    .fil38 {fill:#BBBDBF;fill-rule:nonzero}
    .fil49 {fill:#BABCBE;fill-rule:nonzero}
    .fil85 {fill:#BABBBE;fill-rule:nonzero}
    .fil6 {fill:#B9BBBD;fill-rule:nonzero}
    .fil113 {fill:#B8BABC;fill-rule:nonzero}
    .fil28 {fill:#B7B9BB;fill-rule:nonzero}
    .fil57 {fill:#B6B8BB;fill-rule:nonzero}
    .fil50 {fill:#B5B7B9;fill-rule:nonzero}
    .fil68 {fill:#B4B6B8;fill-rule:nonzero}
    .fil5 {fill:#B3B5B7;fill-rule:nonzero}
    .fil107 {fill:#B2B4B7;fill-rule:nonzero}
    .fil29 {fill:#B2B4B6;fill-rule:nonzero}
    .fil74 {fill:#B0B2B4;fill-rule:nonzero}
    .fil51 {fill:#AFB1B4;fill-rule:nonzero}
    .fil4 {fill:#AFB1B3;fill-rule:nonzero}
    .fil69 {fill:#AEB0B2;fill-rule:nonzero}
    .fil102 {fill:#ADAFB1;fill-rule:nonzero}
    .fil30 {fill:#ACAEB1;fill-rule:nonzero}
    .fil37 {fill:#ABADB0;fill-rule:nonzero}
    .fil86 {fill:#ABADAF;fill-rule:nonzero}
    .fil52 {fill:#AAACAE;fill-rule:nonzero}
    .fil116 {fill:#A9ABAE;fill-rule:nonzero}
    .fil120 {fill:#A9ABAE;fill-rule:nonzero}
    .fil91 {fill:#A8AAAD;fill-rule:nonzero}
    .fil104 {fill:#A8AAAC;fill-rule:nonzero}
    .fil31 {fill:#A7A9AB;fill-rule:nonzero}
    .fil87 {fill:#A6A8AB;fill-rule:nonzero}
    .fil115 {fill:#A5A7AA;fill-rule:nonzero}
    .fil53 {fill:#A5A7A9;fill-rule:nonzero}
    .fil36 {fill:#A4A6A8;fill-rule:nonzero}
    .fil73 {fill:#A3A5A8;fill-rule:nonzero}
    .fil88 {fill:#A2A4A6;fill-rule:nonzero}
    .fil32 {fill:#A1A3A5;fill-rule:nonzero}
    .fil103 {fill:#A0A2A5;fill-rule:nonzero}
    .fil54 {fill:#9FA1A4;fill-rule:nonzero}
    .fil114 {fill:#9FA1A3;fill-rule:nonzero}
    .fil90 {fill:#9EA0A2;fill-rule:nonzero}
    .fil72 {fill:#9D9FA2;fill-rule:nonzero}
    .fil35 {fill:#9C9EA1;fill-rule:nonzero}
    .fil33 {fill:#9C9EA0;fill-rule:nonzero}
    .fil70 {fill:#9B9D9F;fill-rule:nonzero}
    .fil55 {fill:#999B9E;fill-rule:nonzero}
    .fil89 {fill:#999B9D;fill-rule:nonzero}
    .fil56 {fill:#989A9C;fill-rule:nonzero}
    .fil71 {fill:#97999C;fill-rule:nonzero}
    .fil34 {fill:#97999B;fill-rule:nonzero}
    .fil119 {fill:white;fill-rule:nonzero}
    .fil121 {fill:url(#id4);fill-rule:nonzero}
   ]]>
  </style>
    <clipPath id="id0">
     <path d="M1.11 14.71l783.52 0 0 783.52 -783.52 0 0 -783.52z"/>
    </clipPath>
     <clipPath id="id1" style="clip-rule:nonzero">
      <path d="M1.11 7.22l791.01 0 0 798.5 -798.5 0 0 -798.5 7.49 0zm776.03 14.98l-768.54 0 0 768.54 768.54 0 0 -768.54z"/>
     </clipPath>
     <clipPath id="id2">
      <path d="M87.33 151.94l585.59 0 0 499.27 -585.59 0 0 -499.27z"/>
     </clipPath>
     <clipPath id="id3" style="clip-rule:nonzero">
      <path d="M144.75 342.85l496.24 0c16.77,0 32.02,6.87 43.07,17.92 11.08,11.08 17.95,26.33 17.95,43.1 0,16.78 -6.87,32.03 -17.92,43.09 -11.08,11.07 -26.33,17.94 -43.1,17.94l-496.24 0c-16.77,0 -32.02,-6.87 -43.08,-17.91 -11.07,-11.09 -17.94,-26.34 -17.94,-43.11 0,-16.78 6.87,-32.03 17.91,-43.08 11.09,-11.08 26.34,-17.95 43.11,-17.95zm496.24 14.98l-496.24 0c-12.67,0 -24.19,5.18 -32.53,13.51 -8.33,8.35 -13.51,19.87 -13.51,32.53 0,12.68 5.18,24.2 13.51,32.54 8.34,8.33 19.86,13.51 32.53,13.51l496.24 0c12.66,0 24.18,-5.18 32.53,-13.51 8.32,-8.34 13.51,-19.86 13.51,-32.53 0,-12.67 -5.19,-24.19 -13.51,-32.54 -8.35,-8.33 -19.87,-13.51 -32.53,-13.51z"/>
     </clipPath>
  <linearGradient id="id4" gradientUnits="userSpaceOnUse" x1="102.21" y1="386.28" x2="772.39" y2="805.72">
   <stop offset="0" style="stop-opacity:1; stop-color:#A9ABAE"/>
   <stop offset="0.0588235" style="stop-opacity:1; stop-color:#FEFEFE"/>
   <stop offset="0.129412" style="stop-opacity:1; stop-color:#96989A"/>
   <stop offset="0.180392" style="stop-opacity:1; stop-color:#FEFEFE"/>
   <stop offset="0.25098" style="stop-opacity:1; stop-color:#96989A"/>
   <stop offset="0.301961" style="stop-opacity:1; stop-color:#FEFEFE"/>
   <stop offset="0.360784" style="stop-opacity:1; stop-color:#96989A"/>
   <stop offset="0.419608" style="stop-opacity:1; stop-color:#FEFEFE"/>
   <stop offset="0.501961" style="stop-opacity:1; stop-color:#96989A"/>
   <stop offset="0.568627" style="stop-opacity:1; stop-color:#FEFEFE"/>
   <stop offset="0.631373" style="stop-opacity:1; stop-color:#96989A"/>
   <stop offset="0.678431" style="stop-opacity:1; stop-color:#FEFEFE"/>
   <stop offset="0.741176" style="stop-opacity:1; stop-color:#A9ABAE"/>
   <stop offset="0.819608" style="stop-opacity:1; stop-color:#FEFEFE"/>
   <stop offset="0.878431" style="stop-opacity:1; stop-color:#96989A"/>
   <stop offset="0.94902" style="stop-opacity:1; stop-color:#E6E7E8"/>
   <stop offset="1" style="stop-opacity:1; stop-color:white"/>
  </linearGradient>
 </defs>
 <g id="Layer_x0020_1">
  <metadata id="CorelCorpID_0Corel-Layer"/>
  <g id="_2735582520016">
   <g>
   </g>
   <g style="clip-path:url(#id0)">
    <g>
     <g>
      <rect class="fil0" x="-71.89" y="-31.28" width="915.94" height="435.14"/>
      <rect class="fil1" x="-71.89" y="403.88" width="915.94" height="435.14"/>
     </g>
     <polygon class="fil2" points="-34.39,396.38 820.12,396.38 820.12,411.36 -34.39,411.36 "/>
    </g>
   </g>
   <polygon class="fil3" points="1.11,14.71 784.63,14.71 784.63,798.23 1.11,798.23 "/>
   <g>
    <g style="clip-path:url(#id1)">
     <polygon class="fil4" points="392.87,406.47 -171.84,403.01 -171.33,382.22 "/>
     <polygon id="_1" class="fil5" points="392.87,406.47 -171.42,385.69 -170.57,368.38 "/>
     <polygon id="_2" class="fil6" points="392.87,406.47 -170.74,371.85 -169.46,354.57 "/>
     <polygon id="_3" class="fil7" points="392.87,406.47 -169.72,358.02 -168.02,340.78 "/>
     <polygon id="_4" class="fil8" points="392.87,406.47 -168.36,344.23 -166.24,327.04 "/>
     <polygon id="_5" class="fil9" points="392.87,406.47 -166.66,330.48 -164.12,313.34 "/>
     <polygon id="_6" class="fil10" points="392.87,406.47 -164.63,316.77 -161.67,299.7 "/>
     <polygon id="_7" class="fil11" points="392.87,406.47 -162.26,303.11 -158.88,286.12 "/>
     <polygon id="_8" class="fil12" points="392.87,406.47 -159.55,289.52 -155.76,272.62 "/>
     <polygon id="_9" class="fil13" points="392.87,406.47 -156.52,276 -152.31,259.2 "/>
     <polygon id="_10" class="fil14" points="392.87,406.47 -153.15,262.56 -148.53,245.86 "/>
     <polygon id="_11" class="fil15" points="392.87,406.47 -149.45,249.2 -144.43,232.62 "/>
     <polygon id="_12" class="fil16" points="392.87,406.47 -145.43,235.94 -140,219.49 "/>
     <polygon id="_13" class="fil17" points="392.87,406.47 -141.08,222.78 -135.25,206.47 "/>
     <polygon id="_14" class="fil18" points="392.87,406.47 -136.42,209.73 -130.18,193.57 "/>
     <polygon id="_15" class="fil19" points="392.87,406.47 -131.43,196.8 -124.8,180.79 "/>
     <polygon id="_16" class="fil20" points="392.87,406.47 -126.12,184 -119.1,168.16 "/>
     <polygon id="_17" class="fil21" points="392.87,406.47 -120.51,171.33 -113.1,155.67 "/>
     <polygon id="_18" class="fil22" points="392.87,406.47 -114.58,158.8 -106.79,143.32 "/>
     <polygon id="_19" class="fil23" points="392.87,406.47 -108.35,146.42 -100.18,131.14 "/>
     <polygon id="_20" class="fil24" points="392.87,406.47 -101.82,134.2 -93.28,119.12 "/>
     <polygon id="_21" class="fil25" points="392.87,406.47 -94.99,122.14 -86.08,107.28 "/>
     <polygon id="_22" class="fil10" points="392.87,406.47 -87.86,110.25 -78.59,95.62 "/>
     <polygon id="_23" class="fil9" points="392.87,406.47 -80.45,98.54 -70.82,84.14 "/>
     <polygon id="_24" class="fil26" points="392.87,406.47 -72.75,87.02 -62.77,72.86 "/>
     <polygon id="_25" class="fil27" points="392.87,406.47 -64.77,75.69 -54.45,61.77 "/>
     <polygon id="_26" class="fil28" points="392.87,406.47 -56.51,64.56 -45.85,50.9 "/>
     <polygon id="_27" class="fil29" points="392.87,406.47 -47.99,53.63 -37,40.24 "/>
     <polygon id="_28" class="fil30" points="392.87,406.47 -39.2,42.92 -27.88,29.8 "/>
     <polygon id="_29" class="fil31" points="392.87,406.47 -30.14,32.43 -18.51,19.59 "/>
     <polygon id="_30" class="fil32" points="392.87,406.47 -20.84,22.16 -8.89,9.61 "/>
     <polygon id="_31" class="fil33" points="392.87,406.47 -11.28,12.12 0.97,-0.13 "/>
     <polygon id="_32" class="fil34" points="392.87,406.47 -1.48,2.32 11.07,-9.63 "/>
     <polygon id="_33" class="fil35" points="392.87,406.47 8.56,-7.24 21.39,-18.87 "/>
     <polygon id="_34" class="fil36" points="392.87,406.47 18.83,-16.54 31.94,-27.86 "/>
     <polygon id="_35" class="fil37" points="392.87,406.47 29.32,-25.6 42.71,-36.59 "/>
     <polygon id="_36" class="fil5" points="392.87,406.47 40.03,-34.39 53.69,-45.05 "/>
     <polygon id="_37" class="fil38" points="392.87,406.47 50.96,-42.91 64.87,-53.23 "/>
     <polygon id="_38" class="fil8" points="392.87,406.47 62.09,-51.17 76.25,-61.14 "/>
     <polygon id="_39" class="fil39" points="392.87,406.47 73.42,-59.15 87.82,-68.77 "/>
     <polygon id="_40" class="fil11" points="392.87,406.47 84.94,-66.85 99.58,-76.12 "/>
     <polygon id="_41" class="fil40" points="392.87,406.47 96.65,-74.26 111.51,-83.17 "/>
     <polygon id="_42" class="fil14" points="392.87,406.47 108.54,-81.39 123.61,-89.93 "/>
     <polygon id="_43" class="fil21" points="392.87,406.47 120.6,-88.22 135.88,-96.38 "/>
     <polygon id="_44" class="fil17" points="392.87,406.47 132.82,-94.75 148.29,-102.54 "/>
     <polygon id="_45" class="fil41" points="392.87,406.47 145.2,-100.98 160.86,-108.39 "/>
     <polygon id="_46" class="fil42" points="392.87,406.47 157.73,-106.91 173.56,-113.93 "/>
     <polygon id="_47" class="fil16" points="392.87,406.47 170.4,-112.52 186.4,-119.15 "/>
     <polygon id="_48" class="fil15" points="392.87,406.47 183.2,-117.83 199.36,-124.06 "/>
     <polygon id="_49" class="fil14" points="392.87,406.47 196.13,-122.82 212.44,-128.65 "/>
     <polygon id="_50" class="fil43" points="392.87,406.47 209.18,-127.48 225.63,-132.92 "/>
     <polygon id="_51" class="fil44" points="392.87,406.47 222.34,-131.83 238.92,-136.86 "/>
     <polygon id="_52" class="fil45" points="392.87,406.47 235.6,-135.85 252.3,-140.47 "/>
     <polygon id="_53" class="fil46" points="392.87,406.47 248.96,-139.55 265.76,-143.76 "/>
     <polygon id="_54" class="fil47" points="392.87,406.47 262.4,-142.92 279.3,-146.71 "/>
     <polygon id="_55" class="fil48" points="392.87,406.47 275.92,-145.95 292.91,-149.33 "/>
     <polygon id="_56" class="fil49" points="392.87,406.47 289.51,-148.66 306.58,-151.62 "/>
     <polygon id="_57" class="fil50" points="392.87,406.47 303.17,-151.03 320.31,-153.57 "/>
     <polygon id="_58" class="fil51" points="392.87,406.47 316.88,-153.06 334.07,-155.18 "/>
     <polygon id="_59" class="fil52" points="392.87,406.47 330.63,-154.76 347.87,-156.46 "/>
     <polygon id="_60" class="fil53" points="392.87,406.47 344.42,-156.12 361.7,-157.39 "/>
     <polygon id="_61" class="fil54" points="392.87,406.47 358.25,-157.14 375.55,-157.99 "/>
     <polygon id="_62" class="fil55" points="392.87,406.47 372.09,-157.82 389.41,-158.24 "/>
     <polygon id="_63" class="fil56" points="392.87,406.47 385.94,-158.16 403.27,-158.16 "/>
     <polygon id="_64" class="fil54" points="392.87,406.47 399.8,-158.16 417.12,-157.73 "/>
     <polygon id="_65" class="fil31" points="392.87,406.47 413.66,-157.82 430.96,-156.97 "/>
     <polygon id="_66" class="fil4" points="392.87,406.47 427.5,-157.14 444.77,-155.86 "/>
     <polygon id="_67" class="fil57" points="392.87,406.47 441.32,-156.12 458.56,-154.42 "/>
     <polygon id="_68" class="fil7" points="392.87,406.47 455.11,-154.76 472.3,-152.64 "/>
     <polygon id="_69" class="fil47" points="392.87,406.47 468.87,-153.06 486,-150.52 "/>
     <polygon id="_70" class="fil10" points="392.87,406.47 482.57,-151.03 499.64,-148.07 "/>
     <polygon id="_71" class="fil58" points="392.87,406.47 496.23,-148.66 513.22,-145.28 "/>
     <polygon id="_72" class="fil13" points="392.87,406.47 509.82,-145.95 526.72,-142.16 "/>
     <polygon id="_73" class="fil59" points="392.87,406.47 523.34,-142.92 540.15,-138.71 "/>
     <polygon id="_74" class="fil16" points="392.87,406.47 536.79,-139.55 553.48,-134.93 "/>
     <polygon id="_75" class="fil19" points="392.87,406.47 550.14,-135.85 566.72,-130.83 "/>
     <polygon id="_76" class="fil60" points="392.87,406.47 563.41,-131.83 579.85,-126.4 "/>
     <polygon id="_77" class="fil61" points="392.87,406.47 576.56,-127.48 592.88,-121.65 "/>
     <polygon id="_78" class="fil62" points="392.87,406.47 589.61,-122.82 605.78,-116.58 "/>
     <polygon id="_79" class="fil14" points="392.87,406.47 602.54,-117.83 618.55,-111.2 "/>
     <polygon id="_80" class="fil63" points="392.87,406.47 615.35,-112.52 631.18,-105.5 "/>
     <polygon id="_81" class="fil64" points="392.87,406.47 628.02,-106.91 643.68,-99.5 "/>
     <polygon id="_82" class="fil65" points="392.87,406.47 640.54,-100.98 656.02,-93.19 "/>
     <polygon id="_83" class="fil66" points="392.87,406.47 652.92,-94.75 668.2,-86.58 "/>
     <polygon id="_84" class="fil67" points="392.87,406.47 665.15,-88.22 680.22,-79.68 "/>
     <polygon id="_85" class="fil38" points="392.87,406.47 677.2,-81.39 692.06,-72.48 "/>
     <polygon id="_86" class="fil68" points="392.87,406.47 689.09,-74.26 703.73,-64.99 "/>
     <polygon id="_87" class="fil69" points="392.87,406.47 700.8,-66.85 715.2,-57.22 "/>
     <polygon id="_88" class="fil31" points="392.87,406.47 712.32,-59.15 726.49,-49.17 "/>
     <polygon id="_89" class="fil32" points="392.87,406.47 723.65,-51.17 737.57,-40.85 "/>
     <polygon id="_90" class="fil70" points="392.87,406.47 734.79,-42.91 748.44,-32.25 "/>
     <polygon id="_91" class="fil71" points="392.87,406.47 745.71,-34.39 759.1,-23.4 "/>
     <polygon id="_92" class="fil72" points="392.87,406.47 756.42,-25.6 769.54,-14.28 "/>
     <polygon id="_93" class="fil73" points="392.87,406.47 766.92,-16.54 779.75,-4.91 "/>
     <polygon id="_94" class="fil52" points="392.87,406.47 777.19,-7.24 789.73,4.71 "/>
     <polygon id="_95" class="fil74" points="392.87,406.47 787.22,2.32 799.47,14.57 "/>
     <polygon id="_96" class="fil28" points="392.87,406.47 797.02,12.12 808.97,24.67 "/>
     <polygon id="_97" class="fil75" points="392.87,406.47 806.58,22.16 818.21,34.99 "/>
     <polygon id="_98" class="fil76" points="392.87,406.47 815.89,32.43 827.2,45.54 "/>
     <polygon id="_99" class="fil39" points="392.87,406.47 824.94,42.92 835.93,56.31 "/>
     <polygon id="_100" class="fil45" points="392.87,406.47 833.73,53.63 844.39,67.29 "/>
     <polygon id="_101" class="fil77" points="392.87,406.47 842.26,64.56 852.58,78.47 "/>
     <polygon id="_102" class="fil23" points="392.87,406.47 850.51,75.69 860.49,89.85 "/>
     <polygon id="_103" class="fil78" points="392.87,406.47 858.49,87.02 868.12,101.42 "/>
     <polygon id="_104" class="fil79" points="392.87,406.47 866.19,98.54 875.46,113.18 "/>
     <polygon id="_105" class="fil17" points="392.87,406.47 873.61,110.25 882.51,125.11 "/>
     <polygon id="_106" class="fil41" points="392.87,406.47 880.73,122.14 889.27,137.21 "/>
     <polygon id="_107" class="fil80" points="392.87,406.47 887.56,134.2 895.73,149.48 "/>
     <polygon id="_108" class="fil20" points="392.87,406.47 894.09,146.42 901.88,161.89 "/>
     <polygon id="_109" class="fil79" points="392.87,406.47 900.33,158.8 907.73,174.46 "/>
     <polygon id="_110" class="fil81" points="392.87,406.47 906.25,171.33 913.27,187.16 "/>
     <polygon id="_111" class="fil82" points="392.87,406.47 911.87,184 918.5,200 "/>
     <polygon id="_112" class="fil43" points="392.87,406.47 917.17,196.8 923.41,212.96 "/>
     <polygon id="_113" class="fil77" points="392.87,406.47 922.16,209.73 927.99,226.04 "/>
     <polygon id="_114" class="fil83" points="392.87,406.47 926.83,222.78 932.26,239.23 "/>
     <polygon id="_115" class="fil84" points="392.87,406.47 931.17,235.94 936.2,252.52 "/>
     <polygon id="_116" class="fil9" points="392.87,406.47 935.2,249.2 939.82,265.9 "/>
     <polygon id="_117" class="fil76" points="392.87,406.47 938.89,262.56 943.1,279.36 "/>
     <polygon id="_118" class="fil7" points="392.87,406.47 942.26,276 946.06,292.9 "/>
     <polygon id="_119" class="fil85" points="392.87,406.47 945.3,289.52 948.68,306.51 "/>
     <polygon id="_120" class="fil50" points="392.87,406.47 948,303.11 950.96,320.18 "/>
     <polygon id="_121" class="fil74" points="392.87,406.47 950.37,316.77 952.91,333.91 "/>
     <polygon id="_122" class="fil86" points="392.87,406.47 952.4,330.48 954.52,347.67 "/>
     <polygon id="_123" class="fil87" points="392.87,406.47 954.1,344.23 955.8,361.47 "/>
     <polygon id="_124" class="fil88" points="392.87,406.47 955.46,358.02 956.73,375.3 "/>
     <polygon id="_125" class="fil35" points="392.87,406.47 956.48,371.85 957.33,389.15 "/>
     <polygon id="_126" class="fil56" points="392.87,406.47 957.16,385.69 957.58,403.01 "/>
     <polygon id="_127" class="fil89" points="392.87,406.47 957.5,399.54 957.5,416.87 "/>
     <polygon id="_128" class="fil90" points="392.87,406.47 957.5,413.4 957.07,430.72 "/>
     <polygon id="_129" class="fil73" points="392.87,406.47 957.16,427.26 956.31,444.56 "/>
     <polygon id="_130" class="fil91" points="392.87,406.47 956.48,441.1 955.2,458.37 "/>
     <polygon id="_131" class="fil69" points="392.87,406.47 955.46,454.92 953.76,472.16 "/>
     <polygon id="_132" class="fil5" points="392.87,406.47 954.1,468.71 951.98,485.9 "/>
     <polygon id="_133" class="fil85" points="392.87,406.47 952.4,482.47 949.86,499.6 "/>
     <polygon id="_134" class="fil92" points="392.87,406.47 950.37,496.17 947.41,513.24 "/>
     <polygon id="_135" class="fil93" points="392.87,406.47 948,509.83 944.62,526.82 "/>
     <polygon id="_136" class="fil94" points="392.87,406.47 945.3,523.42 941.5,540.32 "/>
     <polygon id="_137" class="fil95" points="392.87,406.47 942.26,536.94 938.05,553.75 "/>
     <polygon id="_138" class="fil64" points="392.87,406.47 938.89,550.39 934.27,567.08 "/>
     <polygon id="_139" class="fil63" points="392.87,406.47 935.2,563.74 930.17,580.32 "/>
     <polygon id="_140" class="fil82" points="392.87,406.47 931.17,577.01 925.74,593.45 "/>
     <polygon id="_141" class="fil81" points="392.87,406.47 926.83,590.16 920.99,606.48 "/>
     <polygon id="_142" class="fil96" points="392.87,406.47 922.16,603.21 915.92,619.38 "/>
     <polygon id="_143" class="fil97" points="392.87,406.47 917.17,616.14 910.54,632.15 "/>
     <polygon id="_144" class="fil98" points="392.87,406.47 911.87,628.95 904.85,644.78 "/>
     <polygon id="_145" class="fil19" points="392.87,406.47 906.25,641.62 898.84,657.28 "/>
     <polygon id="_146" class="fil99" points="392.87,406.47 900.33,654.14 892.54,669.62 "/>
     <polygon id="_147" class="fil15" points="392.87,406.47 894.09,666.52 885.93,681.8 "/>
     <polygon id="_148" class="fil82" points="392.87,406.47 887.56,678.75 879.02,693.82 "/>
     <polygon id="_149" class="fil40" points="392.87,406.47 880.73,690.8 871.82,705.66 "/>
     <polygon id="_150" class="fil100" points="392.87,406.47 873.61,702.69 864.34,717.33 "/>
     <polygon id="_151" class="fil84" points="392.87,406.47 866.19,714.4 856.57,728.8 "/>
     <polygon id="_152" class="fil101" points="392.87,406.47 858.49,725.92 848.52,740.09 "/>
     <polygon id="_153" class="fil48" points="392.87,406.47 850.51,737.25 840.19,751.17 "/>
     <polygon id="_154" class="fil85" points="392.87,406.47 842.26,748.39 831.6,762.04 "/>
     <polygon id="_155" class="fil5" points="392.87,406.47 833.73,759.31 822.74,772.7 "/>
     <polygon id="_156" class="fil102" points="392.87,406.47 824.94,770.02 813.62,783.14 "/>
     <polygon id="_157" class="fil87" points="392.87,406.47 815.89,780.52 804.25,793.35 "/>
     <polygon id="_158" class="fil103" points="392.87,406.47 806.58,790.79 794.63,803.33 "/>
     <polygon id="_159" class="fil55" points="392.87,406.47 797.02,800.82 784.77,813.07 "/>
     <polygon id="_160" class="fil89" points="392.87,406.47 787.22,810.62 774.68,822.57 "/>
     <polygon id="_161" class="fil103" points="392.87,406.47 777.19,820.18 764.35,831.81 "/>
     <polygon id="_162" class="fil104" points="392.87,406.47 766.92,829.49 753.8,840.8 "/>
     <polygon id="_163" class="fil51" points="392.87,406.47 756.42,838.54 743.03,849.53 "/>
     <polygon id="_164" class="fil28" points="392.87,406.47 745.71,847.33 732.05,857.99 "/>
     <polygon id="_165" class="fil92" points="392.87,406.47 734.79,855.86 720.87,866.18 "/>
     <polygon id="_166" class="fil101" points="392.87,406.47 723.65,864.11 709.49,874.09 "/>
     <polygon id="_167" class="fil65" points="392.87,406.47 712.32,872.09 697.92,881.72 "/>
     <polygon id="_168" class="fil44" points="392.87,406.47 700.8,879.79 686.16,889.06 "/>
     <polygon id="_169" class="fil23" points="392.87,406.47 689.09,887.21 674.23,896.11 "/>
     <polygon id="_170" class="fil81" points="392.87,406.47 677.2,894.33 662.13,902.87 "/>
     <polygon id="_171" class="fil99" points="392.87,406.47 665.15,901.16 649.87,909.33 "/>
     <polygon id="_172" class="fil60" points="392.87,406.47 652.92,907.69 637.45,915.48 "/>
     <polygon id="_173" class="fil60" points="392.87,406.47 640.54,913.93 624.88,921.33 "/>
     <polygon id="_174" class="fil105" points="392.87,406.47 628.02,919.85 612.18,926.87 "/>
     <polygon id="_175" class="fil96" points="392.87,406.47 615.35,925.47 599.34,932.1 "/>
     <polygon id="_176" class="fil81" points="392.87,406.47 602.54,930.77 586.38,937.01 "/>
     <polygon id="_177" class="fil82" points="392.87,406.47 589.61,935.76 573.3,941.59 "/>
     <polygon id="_178" class="fil43" points="392.87,406.47 576.56,940.43 560.11,945.86 "/>
     <polygon id="_179" class="fil44" points="392.87,406.47 563.41,944.77 546.83,949.8 "/>
     <polygon id="_180" class="fil45" points="392.87,406.47 550.14,948.8 533.45,953.42 "/>
     <polygon id="_181" class="fil106" points="392.87,406.47 536.79,952.49 519.98,956.7 "/>
     <polygon id="_182" class="fil101" points="392.87,406.47 523.34,955.86 506.44,959.66 "/>
     <polygon id="_183" class="fil67" points="392.87,406.47 509.82,958.9 492.83,962.28 "/>
     <polygon id="_184" class="fil27" points="392.87,406.47 496.23,961.6 479.16,964.56 "/>
     <polygon id="_185" class="fil28" points="392.87,406.47 482.57,963.97 465.44,966.51 "/>
     <polygon id="_186" class="fil29" points="392.87,406.47 468.87,966 451.67,968.12 "/>
     <polygon id="_187" class="fil102" points="392.87,406.47 455.11,967.7 437.87,969.4 "/>
     <polygon id="_188" class="fil86" points="392.87,406.47 441.32,969.06 424.04,970.33 "/>
     <polygon id="_189" class="fil4" points="392.87,406.47 427.5,970.08 410.19,970.93 "/>
     <polygon id="_190" class="fil107" points="392.87,406.47 413.66,970.76 396.34,971.18 "/>
     <polygon id="_191" class="fil57" points="392.87,406.47 399.8,971.1 382.48,971.1 "/>
     <polygon id="_192" class="fil49" points="392.87,406.47 385.94,971.1 368.62,970.67 "/>
     <polygon id="_193" class="fil75" points="392.87,406.47 372.09,970.76 354.78,969.91 "/>
     <polygon id="_194" class="fil67" points="392.87,406.47 358.25,970.08 340.97,968.8 "/>
     <polygon id="_195" class="fil47" points="392.87,406.47 344.42,969.06 327.18,967.36 "/>
     <polygon id="_196" class="fil94" points="392.87,406.47 330.63,967.7 313.44,965.58 "/>
     <polygon id="_197" class="fil10" points="392.87,406.47 316.88,966 299.74,963.46 "/>
     <polygon id="_198" class="fil83" points="392.87,406.47 303.17,963.97 286.1,961.01 "/>
     <polygon id="_199" class="fil58" points="392.87,406.47 289.51,961.6 272.52,958.22 "/>
     <polygon id="_200" class="fil108" points="392.87,406.47 275.92,958.9 259.02,955.1 "/>
     <polygon id="_201" class="fil13" points="392.87,406.47 262.4,955.86 245.6,951.65 "/>
     <polygon id="_202" class="fil109" points="392.87,406.47 248.96,952.49 232.26,947.87 "/>
     <polygon id="_203" class="fil78" points="392.87,406.47 235.6,948.8 219.02,943.77 "/>
     <polygon id="_204" class="fil62" points="392.87,406.47 222.34,944.77 205.89,939.34 "/>
     <polygon id="_205" class="fil110" points="392.87,406.47 209.18,940.43 192.87,934.59 "/>
     <polygon id="_206" class="fil105" points="392.87,406.47 196.13,935.76 179.97,929.52 "/>
     <polygon id="_207" class="fil80" points="392.87,406.47 183.2,930.77 167.19,924.14 "/>
     <polygon id="_208" class="fil41" points="392.87,406.47 170.4,925.47 154.56,918.45 "/>
     <polygon id="_209" class="fil42" points="392.87,406.47 157.73,919.85 142.07,912.44 "/>
     <polygon id="_210" class="fil110" points="392.87,406.47 145.2,913.93 129.72,906.14 "/>
     <polygon id="_211" class="fil81" points="392.87,406.47 132.82,907.69 117.54,899.53 "/>
     <polygon id="_212" class="fil111" points="392.87,406.47 120.6,901.16 105.52,892.62 "/>
     <polygon id="_213" class="fil24" points="392.87,406.47 108.54,894.33 93.68,885.42 "/>
     <polygon id="_214" class="fil11" points="392.87,406.47 96.65,887.21 82.02,877.94 "/>
     <polygon id="_215" class="fil46" points="392.87,406.47 84.94,879.79 70.54,870.17 "/>
     <polygon id="_216" class="fil112" points="392.87,406.47 73.42,872.09 59.26,862.12 "/>
     <polygon id="_217" class="fil92" points="392.87,406.47 62.09,864.11 48.17,853.79 "/>
     <polygon id="_218" class="fil113" points="392.87,406.47 50.96,855.86 37.3,845.2 "/>
     <polygon id="_219" class="fil29" points="392.87,406.47 40.03,847.33 26.64,836.34 "/>
     <polygon id="_220" class="fil86" points="392.87,406.47 29.32,838.54 16.2,827.22 "/>
     <polygon id="_221" class="fil53" points="392.87,406.47 18.83,829.49 5.99,817.85 "/>
     <polygon id="_222" class="fil114" points="392.87,406.47 8.56,820.18 -3.99,808.23 "/>
     <polygon id="_223" class="fil56" points="392.87,406.47 -1.48,810.62 -13.73,798.37 "/>
     <polygon id="_224" class="fil56" points="392.87,406.47 -11.28,800.82 -23.23,788.28 "/>
     <polygon id="_225" class="fil35" points="392.87,406.47 -20.84,790.79 -32.47,777.95 "/>
     <polygon id="_226" class="fil32" points="392.87,406.47 -30.14,780.52 -41.46,767.4 "/>
     <polygon id="_227" class="fil115" points="392.87,406.47 -39.2,770.02 -50.19,756.63 "/>
     <polygon id="_228" class="fil116" points="392.87,406.47 -47.99,759.31 -58.65,745.65 "/>
     <polygon id="_229" class="fil69" points="392.87,406.47 -56.51,748.39 -66.83,734.47 "/>
     <polygon id="_230" class="fil107" points="392.87,406.47 -64.77,737.25 -74.74,723.09 "/>
     <polygon id="_231" class="fil57" points="392.87,406.47 -72.75,725.92 -82.37,711.52 "/>
     <polygon id="_232" class="fil38" points="392.87,406.47 -80.45,714.4 -89.72,699.76 "/>
     <polygon id="_233" class="fil117" points="392.87,406.47 -87.86,702.69 -96.77,687.83 "/>
     <polygon id="_234" class="fil93" points="392.87,406.47 -94.99,690.8 -103.53,675.73 "/>
     <polygon id="_235" class="fil9" points="392.87,406.47 -101.82,678.75 -109.99,663.47 "/>
     <polygon id="_236" class="fil84" points="392.87,406.47 -108.35,666.52 -116.14,651.05 "/>
     <polygon id="_237" class="fil83" points="392.87,406.47 -114.58,654.14 -121.99,638.48 "/>
     <polygon id="_238" class="fil58" points="392.87,406.47 -120.51,641.62 -127.53,625.78 "/>
     <polygon id="_239" class="fil40" points="392.87,406.47 -126.12,628.95 -132.75,612.94 "/>
     <polygon id="_240" class="fil111" points="392.87,406.47 -131.43,616.14 -137.66,599.98 "/>
     <polygon id="_241" class="fil22" points="392.87,406.47 -136.42,603.21 -142.25,586.9 "/>
     <polygon id="_242" class="fil81" points="392.87,406.47 -141.08,590.16 -146.52,573.71 "/>
     <polygon id="_243" class="fil15" points="392.87,406.47 -145.43,577.01 -150.46,560.43 "/>
     <polygon id="_244" class="fil118" points="392.87,406.47 -149.45,563.74 -154.07,547.05 "/>
     <polygon id="_245" class="fil79" points="392.87,406.47 -153.15,550.39 -157.36,533.58 "/>
     <polygon id="_246" class="fil110" points="392.87,406.47 -156.52,536.94 -160.31,520.04 "/>
     <polygon id="_247" class="fil99" points="392.87,406.47 -159.55,523.42 -162.93,506.43 "/>
     <polygon id="_248" class="fil20" points="392.87,406.47 -162.26,509.83 -165.22,492.76 "/>
     <polygon id="_249" class="fil97" points="392.87,406.47 -164.63,496.17 -167.17,479.04 "/>
     <polygon id="_250" class="fil42" points="392.87,406.47 -166.66,482.47 -168.78,465.27 "/>
     <polygon id="_251" class="fil80" points="392.87,406.47 -168.36,468.71 -170.06,451.47 "/>
     <polygon id="_252" class="fil60" points="392.87,406.47 -169.72,454.92 -170.99,437.64 "/>
     <polygon id="_253" class="fil18" points="392.87,406.47 -170.74,441.1 -171.59,423.79 "/>
     <polygon id="_254" class="fil119" points="392.87,406.47 -171.42,427.26 -171.84,409.94 "/>
     <polygon id="_255" class="fil120" points="392.87,406.47 -171.76,413.4 -171.76,399.54 "/>
    </g>
   </g>
   <g>
    <g style="clip-path:url(#id2)">
     <image x="87.33" y="151.94" width="585.59" height="499.27" xlink:href="demo42-dark_Images\demo42-dark_ImgID1.png"/>
    </g>
   </g>
   <path class="fil2" d="M181.35 180.32l-20.57 18.13c-7.21,-10.01 -14.55,-15.02 -22.03,-15.02 -3.65,0 -6.63,0.98 -8.94,2.91 -2.32,1.96 -3.48,4.16 -3.48,6.6 0,2.43 0.82,4.77 2.47,6.94 2.27,2.9 9.07,9.13 20.41,18.71 10.59,8.87 17.02,14.45 19.28,16.75 5.62,5.69 9.61,11.1 11.99,16.28 2.33,5.2 3.52,10.86 3.52,16.99 0,11.97 -4.14,21.82 -12.43,29.64 -8.25,7.78 -19.04,11.67 -32.38,11.67 -10.39,0 -19.42,-2.54 -27.13,-7.62 -7.72,-5.1 -14.36,-13.09 -19.84,-23.99l23.39 -14.07c7.04,12.86 15.12,19.29 24.26,19.29 4.77,0 8.8,-1.39 12.05,-4.17 3.24,-2.77 4.87,-5.98 4.87,-9.61 0,-3.28 -1.22,-6.6 -3.69,-9.91 -2.44,-3.29 -7.85,-8.36 -16.21,-15.16 -15.91,-12.93 -26.16,-22.91 -30.8,-29.95 -4.63,-7.03 -6.96,-14.04 -6.96,-21.05 0,-10.12 3.85,-18.78 11.53,-25.99 7.72,-7.23 17.23,-10.86 28.53,-10.86 7.28,0 14.21,1.69 20.78,5.04 6.6,3.39 13.71,9.51 21.38,18.45zm-7.27 316.56l88.32 0 -52.04 118.98 48.59 0 0 26.8 -89.14 0 51.78 -118.37 -47.51 0 0 -27.41zm148.13 -3.66c20.61,0 38.34,7.49 53.16,22.41 14.86,14.92 22.27,33.13 22.27,54.58 0,21.29 -7.31,39.29 -21.96,54.01 -14.62,14.72 -32.39,22.1 -53.26,22.1 -21.9,0 -40.07,-7.58 -54.52,-22.71 -14.48,-15.13 -21.72,-33.1 -21.72,-53.9 0,-13.91 3.38,-26.74 10.11,-38.45 6.74,-11.67 16.01,-20.94 27.79,-27.78 11.81,-6.83 24.53,-10.26 38.13,-10.26zm-0.41 27.22c-13.43,0 -24.73,4.7 -33.87,14.07 -9.16,9.37 -13.73,21.29 -13.73,35.77 0,16.11 5.75,28.86 17.28,38.24 8.98,7.34 19.22,11 30.83,11 13.1,0 24.26,-4.78 33.47,-14.29 9.24,-9.5 13.84,-21.21 13.84,-35.16 0,-13.87 -4.63,-25.61 -13.94,-35.22 -9.27,-9.61 -20.57,-14.41 -33.88,-14.41zm72.57 -23.56l26.33 0 62.8 95.93 0 -95.93 27.61 0 0 145.78 -26.53 0 -62.6 -95.63 0 95.63 -27.61 0 0 -145.78zm120.35 0l79.59 0 0 27.21 -51.99 0 0 26.19 51.99 0 0 26.8 -51.99 0 0 38.38 51.99 0 0 27.2 -79.59 0 0 -145.78zm-323.77 -336.39l27.82 0 0 94.3c0,8.13 0.71,13.88 2.13,17.23 1.42,3.39 3.76,6.06 7.04,8.09 3.28,1.99 7.24,3.01 11.84,3.01 4.91,0 9.11,-1.11 12.66,-3.38 3.56,-2.24 5.99,-5.08 7.35,-8.56 1.34,-3.46 2.03,-10.09 2.03,-19.87l0 -90.82 27.81 0 0 86.9c0,14.68 -0.81,24.83 -2.48,30.52 -1.65,5.68 -4.8,11.17 -9.47,16.45 -4.63,5.28 -10.02,9.2 -16.1,11.74 -6.06,2.53 -13.14,3.82 -21.19,3.82 -10.56,0 -19.76,-2.43 -27.58,-7.27 -7.85,-4.88 -13.43,-10.94 -16.82,-18.25 -3.35,-7.3 -5.04,-19.62 -5.04,-37.01l0 -86.9zm112.37 0l29.47 0c15.94,0 27.41,1.45 34.45,4.39 7.04,2.95 12.62,7.72 16.68,14.29 4.06,6.56 6.09,14.44 6.09,23.65 0,10.19 -2.67,18.64 -8.01,25.38 -5.32,6.73 -12.56,11.43 -21.73,14.08 -5.38,1.52 -15.16,2.26 -29.34,2.26l0 61.73 -27.61 0 0 -145.78zm27.61 57.05l8.9 0c7.01,0 11.85,-0.51 14.59,-1.49 2.74,-1.01 4.87,-2.64 6.46,-4.94 1.55,-2.3 2.33,-5.08 2.33,-8.36 0,-5.65 -2.19,-9.78 -6.6,-12.35 -3.17,-1.93 -9.14,-2.91 -17.8,-2.91l-7.88 0 0 30.05zm67.66 -57.05l29.48 0c15.94,0 27.4,1.45 34.45,4.39 7.04,2.95 12.62,7.72 16.68,14.29 4.06,6.56 6.09,14.44 6.09,23.65 0,10.19 -2.68,18.64 -8.02,25.38 -5.32,6.73 -12.55,11.43 -21.73,14.08 -5.38,1.52 -15.16,2.26 -29.34,2.26l0 61.73 -27.61 0 0 -145.78zm27.61 57.05l8.9 0c7.01,0 11.85,-0.51 14.59,-1.49 2.74,-1.01 4.87,-2.64 6.47,-4.94 1.55,-2.3 2.33,-5.08 2.33,-8.36 0,-5.65 -2.2,-9.78 -6.6,-12.35 -3.18,-1.93 -9.14,-2.91 -17.8,-2.91l-7.89 0 0 30.05zm67.67 -57.05l27.61 0 0 119.38 40.81 0 0 26.4 -68.42 0 0 -145.78zm60.66 0l29.67 0 27.07 52.34 27.07 -52.34 29.68 0 -42.73 82.63 0 63.15 -28.03 0 0 -63.15 -42.73 -82.63z"/>
   <path class="fil1" d="M144.75 350.34l496.24 0c29.45,0 53.53,24.08 53.53,53.53l0 0.01c0,29.45 -24.08,53.53 -53.53,53.53l-496.24 0c-29.45,0 -53.53,-24.08 -53.53,-53.53l0 -0.01c0,-29.45 24.08,-53.53 53.53,-53.53z"/>
   <g>
    <g style="clip-path:url(#id3)">
     <polygon class="fil4" points="392.87,403.88 -44.39,403.35 -43.99,400.17 "/>
     <polygon id="_1_0" class="fil5" points="392.87,403.88 -44.06,400.7 -43.4,398.06 "/>
     <polygon id="_2_1" class="fil6" points="392.87,403.88 -43.53,398.58 -42.54,395.94 "/>
     <polygon id="_3_2" class="fil7" points="392.87,403.88 -42.74,396.47 -41.43,393.84 "/>
     <polygon id="_4_3" class="fil8" points="392.87,403.88 -41.69,394.36 -40.05,391.74 "/>
     <polygon id="_5_4" class="fil9" points="392.87,403.88 -40.38,392.26 -38.41,389.64 "/>
     <polygon id="_6_5" class="fil10" points="392.87,403.88 -38.8,390.17 -36.51,387.56 "/>
     <polygon id="_7_6" class="fil11" points="392.87,403.88 -36.97,388.08 -34.35,385.48 "/>
     <polygon id="_8_7" class="fil12" points="392.87,403.88 -34.87,386 -31.93,383.42 "/>
     <polygon id="_9_8" class="fil13" points="392.87,403.88 -32.52,383.93 -29.26,381.37 "/>
     <polygon id="_10_9" class="fil14" points="392.87,403.88 -29.91,381.88 -26.34,379.33 "/>
     <polygon id="_11_10" class="fil15" points="392.87,403.88 -27.05,379.84 -23.16,377.3 "/>
     <polygon id="_12_11" class="fil16" points="392.87,403.88 -23.94,377.81 -19.73,375.3 "/>
     <polygon id="_13_12" class="fil17" points="392.87,403.88 -20.57,375.8 -16.05,373.31 "/>
     <polygon id="_14_13" class="fil18" points="392.87,403.88 -16.96,373.8 -12.13,371.33 "/>
     <polygon id="_15_14" class="fil19" points="392.87,403.88 -13.09,371.83 -7.96,369.38 "/>
     <polygon id="_16_15" class="fil20" points="392.87,403.88 -8.99,369.87 -3.55,367.45 "/>
     <polygon id="_17_16" class="fil21" points="392.87,403.88 -4.64,367.93 1.1,365.54 "/>
     <polygon id="_18_17" class="fil22" points="392.87,403.88 -0.05,366.02 5.98,363.65 "/>
     <polygon id="_19_18" class="fil23" points="392.87,403.88 4.77,364.13 11.1,361.79 "/>
     <polygon id="_20_19" class="fil24" points="392.87,403.88 9.83,362.26 16.44,359.95 "/>
     <polygon id="_21_20" class="fil25" points="392.87,403.88 15.12,360.42 22.02,358.14 "/>
     <polygon id="_22_21" class="fil10" points="392.87,403.88 20.64,358.6 27.81,356.36 "/>
     <polygon id="_23_22" class="fil9" points="392.87,403.88 26.38,356.81 33.83,354.61 "/>
     <polygon id="_24_23" class="fil26" points="392.87,403.88 32.34,355.05 40.06,352.88 "/>
     <polygon id="_25_24" class="fil27" points="392.87,403.88 38.52,353.32 46.51,351.19 "/>
     <polygon id="_26_25" class="fil28" points="392.87,403.88 44.91,351.61 53.16,349.53 "/>
     <polygon id="_27_26" class="fil29" points="392.87,403.88 51.51,349.94 60.02,347.9 "/>
     <polygon id="_28_27" class="fil30" points="392.87,403.88 58.32,348.31 67.08,346.3 "/>
     <polygon id="_29_28" class="fil31" points="392.87,403.88 65.33,346.7 74.34,344.74 "/>
     <polygon id="_30_29" class="fil32" points="392.87,403.88 72.54,345.13 81.79,343.22 "/>
     <polygon id="_31_30" class="fil33" points="392.87,403.88 79.94,343.6 89.42,341.73 "/>
     <polygon id="_32_31" class="fil34" points="392.87,403.88 87.52,342.1 97.24,340.28 "/>
     <polygon id="_33_32" class="fil35" points="392.87,403.88 95.3,340.64 105.23,338.86 "/>
     <polygon id="_34_33" class="fil36" points="392.87,403.88 103.25,339.22 113.4,337.49 "/>
     <polygon id="_35_34" class="fil37" points="392.87,403.88 111.37,337.83 121.74,336.15 "/>
     <polygon id="_36_35" class="fil5" points="392.87,403.88 119.67,336.49 130.24,334.86 "/>
     <polygon id="_37_36" class="fil38" points="392.87,403.88 128.13,335.19 138.9,333.61 "/>
     <polygon id="_38_37" class="fil8" points="392.87,403.88 136.75,333.93 147.71,332.4 "/>
     <polygon id="_39_38" class="fil39" points="392.87,403.88 145.52,332.71 156.67,331.23 "/>
     <polygon id="_40_39" class="fil11" points="392.87,403.88 154.44,331.53 165.77,330.11 "/>
     <polygon id="_41_40" class="fil40" points="392.87,403.88 163.51,330.4 175.01,329.03 "/>
     <polygon id="_42_41" class="fil14" points="392.87,403.88 172.71,329.31 184.38,328 "/>
     <polygon id="_43_42" class="fil21" points="392.87,403.88 182.05,328.26 193.88,327.01 "/>
     <polygon id="_44_43" class="fil17" points="392.87,403.88 191.51,327.26 203.49,326.07 "/>
     <polygon id="_45_44" class="fil41" points="392.87,403.88 201.1,326.31 213.22,325.18 "/>
     <polygon id="_46_45" class="fil42" points="392.87,403.88 210.8,325.41 223.06,324.33 "/>
     <polygon id="_47_46" class="fil16" points="392.87,403.88 220.61,324.55 233,323.53 "/>
     <polygon id="_48_47" class="fil15" points="392.87,403.88 230.52,323.74 243.04,322.78 "/>
     <polygon id="_49_48" class="fil14" points="392.87,403.88 240.53,322.97 253.16,322.08 "/>
     <polygon id="_50_49" class="fil43" points="392.87,403.88 250.64,322.26 263.37,321.43 "/>
     <polygon id="_51_50" class="fil44" points="392.87,403.88 260.83,321.6 273.66,320.83 "/>
     <polygon id="_52_51" class="fil45" points="392.87,403.88 271.1,320.98 284.02,320.27 "/>
     <polygon id="_53_52" class="fil46" points="392.87,403.88 281.44,320.42 294.45,319.77 "/>
     <polygon id="_54_53" class="fil47" points="392.87,403.88 291.85,319.9 304.93,319.32 "/>
     <polygon id="_55_54" class="fil48" points="392.87,403.88 302.32,319.44 315.47,318.92 "/>
     <polygon id="_56_55" class="fil49" points="392.87,403.88 312.84,319.02 326.06,318.57 "/>
     <polygon id="_57_56" class="fil50" points="392.87,403.88 323.41,318.66 336.68,318.27 "/>
     <polygon id="_58_57" class="fil51" points="392.87,403.88 334.03,318.35 347.34,318.03 "/>
     <polygon id="_59_58" class="fil52" points="392.87,403.88 344.68,318.09 358.03,317.83 "/>
     <polygon id="_60_59" class="fil53" points="392.87,403.88 355.36,317.88 368.74,317.69 "/>
     <polygon id="_61_60" class="fil54" points="392.87,403.88 366.06,317.73 379.46,317.6 "/>
     <polygon id="_62_61" class="fil55" points="392.87,403.88 376.78,317.62 390.19,317.56 "/>
     <polygon id="_63_62" class="fil56" points="392.87,403.88 387.51,317.57 400.92,317.57 "/>
     <polygon id="_64_63" class="fil54" points="392.87,403.88 398.24,317.57 411.65,317.64 "/>
     <polygon id="_65_64" class="fil31" points="392.87,403.88 408.96,317.62 422.36,317.75 "/>
     <polygon id="_66_65" class="fil4" points="392.87,403.88 419.68,317.73 433.06,317.92 "/>
     <polygon id="_67_66" class="fil57" points="392.87,403.88 430.38,317.88 443.73,318.14 "/>
     <polygon id="_68_67" class="fil7" points="392.87,403.88 441.06,318.09 454.38,318.42 "/>
     <polygon id="_69_68" class="fil47" points="392.87,403.88 451.71,318.35 464.98,318.74 "/>
     <polygon id="_70_69" class="fil10" points="392.87,403.88 462.33,318.66 475.54,319.11 "/>
     <polygon id="_71_70" class="fil58" points="392.87,403.88 472.9,319.02 486.06,319.54 "/>
     <polygon id="_72_71" class="fil13" points="392.87,403.88 483.42,319.44 496.51,320.02 "/>
     <polygon id="_73_72" class="fil59" points="392.87,403.88 493.89,319.9 506.91,320.54 "/>
     <polygon id="_74_73" class="fil16" points="392.87,403.88 504.3,320.42 517.23,321.12 "/>
     <polygon id="_75_74" class="fil19" points="392.87,403.88 514.65,320.98 527.48,321.75 "/>
     <polygon id="_76_75" class="fil60" points="392.87,403.88 524.91,321.6 537.65,322.43 "/>
     <polygon id="_77_76" class="fil61" points="392.87,403.88 535.1,322.26 547.73,323.15 "/>
     <polygon id="_78_77" class="fil62" points="392.87,403.88 545.21,322.97 557.72,323.93 "/>
     <polygon id="_79_78" class="fil14" points="392.87,403.88 555.22,323.74 567.61,324.75 "/>
     <polygon id="_80_79" class="fil63" points="392.87,403.88 565.13,324.55 577.4,325.62 "/>
     <polygon id="_81_80" class="fil64" points="392.87,403.88 574.94,325.41 587.07,326.54 "/>
     <polygon id="_82_81" class="fil65" points="392.87,403.88 584.64,326.31 596.63,327.5 "/>
     <polygon id="_83_82" class="fil66" points="392.87,403.88 594.23,327.26 606.06,328.51 "/>
     <polygon id="_84_83" class="fil67" points="392.87,403.88 603.69,328.26 615.36,329.57 "/>
     <polygon id="_85_84" class="fil38" points="392.87,403.88 613.03,329.31 624.54,330.67 "/>
     <polygon id="_86_85" class="fil68" points="392.87,403.88 622.23,330.4 633.57,331.81 "/>
     <polygon id="_87_86" class="fil69" points="392.87,403.88 631.3,331.53 642.45,333 "/>
     <polygon id="_88_87" class="fil31" points="392.87,403.88 640.22,332.71 651.19,334.23 "/>
     <polygon id="_89_88" class="fil32" points="392.87,403.88 649,333.93 659.77,335.5 "/>
     <polygon id="_90_89" class="fil70" points="392.87,403.88 657.61,335.19 668.19,336.82 "/>
     <polygon id="_91_90" class="fil71" points="392.87,403.88 666.07,336.49 676.44,338.17 "/>
     <polygon id="_92_91" class="fil72" points="392.87,403.88 674.37,337.83 684.53,339.56 "/>
     <polygon id="_93_92" class="fil73" points="392.87,403.88 682.49,339.22 692.43,341 "/>
     <polygon id="_94_93" class="fil52" points="392.87,403.88 690.45,340.64 700.16,342.47 "/>
     <polygon id="_95_94" class="fil74" points="392.87,403.88 698.22,342.1 707.7,343.97 "/>
     <polygon id="_96_95" class="fil28" points="392.87,403.88 705.81,343.6 715.05,345.52 "/>
     <polygon id="_97_96" class="fil75" points="392.87,403.88 713.2,345.13 722.21,347.1 "/>
     <polygon id="_98_97" class="fil76" points="392.87,403.88 720.41,346.7 729.17,348.71 "/>
     <polygon id="_99_98" class="fil39" points="392.87,403.88 727.42,348.31 735.93,350.35 "/>
     <polygon id="_100_99" class="fil45" points="392.87,403.88 734.23,349.94 742.48,352.03 "/>
     <polygon id="_101_100" class="fil77" points="392.87,403.88 740.83,351.61 748.82,353.74 "/>
     <polygon id="_102_101" class="fil23" points="392.87,403.88 747.22,353.32 754.95,355.48 "/>
     <polygon id="_103_102" class="fil78" points="392.87,403.88 753.4,355.05 760.85,357.25 "/>
     <polygon id="_104_103" class="fil79" points="392.87,403.88 759.36,356.81 766.54,359.05 "/>
     <polygon id="_105_104" class="fil17" points="392.87,403.88 765.1,358.6 772,360.87 "/>
     <polygon id="_106_105" class="fil41" points="392.87,403.88 770.62,360.42 777.23,362.72 "/>
     <polygon id="_107_106" class="fil80" points="392.87,403.88 775.91,362.26 782.23,364.59 "/>
     <polygon id="_108_107" class="fil20" points="392.87,403.88 780.97,364.13 787,366.49 "/>
     <polygon id="_109_108" class="fil79" points="392.87,403.88 785.79,366.02 791.53,368.41 "/>
     <polygon id="_110_109" class="fil81" points="392.87,403.88 790.38,367.93 795.82,370.36 "/>
     <polygon id="_111_110" class="fil82" points="392.87,403.88 794.73,369.87 799.86,372.32 "/>
     <polygon id="_112_111" class="fil43" points="392.87,403.88 798.84,371.83 803.66,374.3 "/>
     <polygon id="_113_112" class="fil77" points="392.87,403.88 802.7,373.8 807.22,376.3 "/>
     <polygon id="_114_113" class="fil83" points="392.87,403.88 806.31,375.8 810.52,378.31 "/>
     <polygon id="_115_114" class="fil84" points="392.87,403.88 809.68,377.81 813.57,380.34 "/>
     <polygon id="_116_115" class="fil9" points="392.87,403.88 812.79,379.84 816.37,382.39 "/>
     <polygon id="_117_116" class="fil76" points="392.87,403.88 815.66,381.88 818.92,384.45 "/>
     <polygon id="_118_117" class="fil7" points="392.87,403.88 818.26,383.93 821.2,386.52 "/>
     <polygon id="_119_118" class="fil85" points="392.87,403.88 820.61,386 823.23,388.6 "/>
     <polygon id="_120_119" class="fil50" points="392.87,403.88 822.71,388.08 825,390.69 "/>
     <polygon id="_121_120" class="fil74" points="392.87,403.88 824.54,390.17 826.51,392.78 "/>
     <polygon id="_122_121" class="fil86" points="392.87,403.88 826.12,392.26 827.76,394.89 "/>
     <polygon id="_123_122" class="fil87" points="392.87,403.88 827.43,394.36 828.75,397 "/>
     <polygon id="_124_123" class="fil88" points="392.87,403.88 828.48,396.47 829.47,399.11 "/>
     <polygon id="_125_124" class="fil35" points="392.87,403.88 829.27,398.58 829.93,401.23 "/>
     <polygon id="_126_125" class="fil56" points="392.87,403.88 829.8,400.7 830.13,403.35 "/>
     <polygon id="_127_126" class="fil89" points="392.87,403.88 830.06,402.82 830.06,405.47 "/>
     <polygon id="_128_127" class="fil90" points="392.87,403.88 830.06,404.94 829.73,407.58 "/>
     <polygon id="_129_128" class="fil73" points="392.87,403.88 829.8,407.05 829.14,409.7 "/>
     <polygon id="_130_129" class="fil91" points="392.87,403.88 829.27,409.17 828.29,411.81 "/>
     <polygon id="_131_130" class="fil69" points="392.87,403.88 828.48,411.28 827.17,413.92 "/>
     <polygon id="_132_131" class="fil5" points="392.87,403.88 827.43,413.39 825.79,416.02 "/>
     <polygon id="_133_132" class="fil85" points="392.87,403.88 826.12,415.49 824.15,418.11 "/>
     <polygon id="_134_133" class="fil92" points="392.87,403.88 824.54,417.59 822.25,420.2 "/>
     <polygon id="_135_134" class="fil93" points="392.87,403.88 822.71,419.68 820.09,422.27 "/>
     <polygon id="_136_135" class="fil94" points="392.87,403.88 820.61,421.75 817.68,424.34 "/>
     <polygon id="_137_136" class="fil95" points="392.87,403.88 818.26,423.82 815,426.39 "/>
     <polygon id="_138_137" class="fil64" points="392.87,403.88 815.66,425.87 812.08,428.43 "/>
     <polygon id="_139_138" class="fil63" points="392.87,403.88 812.79,427.92 808.9,430.45 "/>
     <polygon id="_140_139" class="fil82" points="392.87,403.88 809.68,429.94 805.47,432.46 "/>
     <polygon id="_141_140" class="fil81" points="392.87,403.88 806.31,431.95 801.79,434.45 "/>
     <polygon id="_142_141" class="fil96" points="392.87,403.88 802.7,433.95 797.87,436.42 "/>
     <polygon id="_143_142" class="fil97" points="392.87,403.88 798.84,435.93 793.7,438.37 "/>
     <polygon id="_144_143" class="fil98" points="392.87,403.88 794.73,437.88 789.29,440.3 "/>
     <polygon id="_145_144" class="fil19" points="392.87,403.88 790.38,439.82 784.65,442.21 "/>
     <polygon id="_146_145" class="fil99" points="392.87,403.88 785.79,441.73 779.76,444.1 "/>
     <polygon id="_147_146" class="fil15" points="392.87,403.88 780.97,443.63 774.64,445.96 "/>
     <polygon id="_148_147" class="fil82" points="392.87,403.88 775.91,445.49 769.3,447.8 "/>
     <polygon id="_149_148" class="fil40" points="392.87,403.88 770.62,447.34 763.72,449.61 "/>
     <polygon id="_150_149" class="fil100" points="392.87,403.88 765.1,449.15 757.93,451.39 "/>
     <polygon id="_151_150" class="fil84" points="392.87,403.88 759.36,450.94 751.91,453.15 "/>
     <polygon id="_152_151" class="fil101" points="392.87,403.88 753.4,452.71 745.68,454.87 "/>
     <polygon id="_153_152" class="fil48" points="392.87,403.88 747.22,454.44 739.23,456.56 "/>
     <polygon id="_154_153" class="fil85" points="392.87,403.88 740.83,456.14 732.58,458.23 "/>
     <polygon id="_155_154" class="fil5" points="392.87,403.88 734.23,457.81 725.72,459.86 "/>
     <polygon id="_156_155" class="fil102" points="392.87,403.88 727.42,459.45 718.66,461.45 "/>
     <polygon id="_157_156" class="fil87" points="392.87,403.88 720.41,461.05 711.4,463.01 "/>
     <polygon id="_158_157" class="fil103" points="392.87,403.88 713.2,462.62 703.96,464.54 "/>
     <polygon id="_159_158" class="fil55" points="392.87,403.88 705.81,464.15 696.32,466.03 "/>
     <polygon id="_160_159" class="fil89" points="392.87,403.88 698.22,465.65 688.5,467.48 "/>
     <polygon id="_161_160" class="fil103" points="392.87,403.88 690.45,467.11 680.51,468.89 "/>
     <polygon id="_162_161" class="fil104" points="392.87,403.88 682.49,468.54 672.34,470.27 "/>
     <polygon id="_163_162" class="fil51" points="392.87,403.88 674.37,469.92 664,471.6 "/>
     <polygon id="_164_163" class="fil28" points="392.87,403.88 666.07,471.26 655.5,472.89 "/>
     <polygon id="_165_164" class="fil92" points="392.87,403.88 657.61,472.57 646.84,474.14 "/>
     <polygon id="_166_165" class="fil101" points="392.87,403.88 649,473.83 638.03,475.35 "/>
     <polygon id="_167_166" class="fil65" points="392.87,403.88 640.22,475.05 629.07,476.52 "/>
     <polygon id="_168_167" class="fil44" points="392.87,403.88 631.3,476.23 619.97,477.64 "/>
     <polygon id="_169_168" class="fil23" points="392.87,403.88 622.23,477.36 610.73,478.72 "/>
     <polygon id="_170_169" class="fil81" points="392.87,403.88 613.03,478.45 601.36,479.75 "/>
     <polygon id="_171_170" class="fil99" points="392.87,403.88 603.69,479.49 591.86,480.74 "/>
     <polygon id="_172_171" class="fil60" points="392.87,403.88 594.23,480.49 582.25,481.68 "/>
     <polygon id="_173_172" class="fil60" points="392.87,403.88 584.64,481.44 572.52,482.57 "/>
     <polygon id="_174_173" class="fil105" points="392.87,403.88 574.94,482.35 562.68,483.42 "/>
     <polygon id="_175_174" class="fil96" points="392.87,403.88 565.13,483.21 552.74,484.22 "/>
     <polygon id="_176_175" class="fil81" points="392.87,403.88 555.22,484.02 542.7,484.97 "/>
     <polygon id="_177_176" class="fil82" points="392.87,403.88 545.21,484.78 532.58,485.67 "/>
     <polygon id="_178_177" class="fil43" points="392.87,403.88 535.1,485.49 522.37,486.32 "/>
     <polygon id="_179_178" class="fil44" points="392.87,403.88 524.91,486.16 512.08,486.93 "/>
     <polygon id="_180_179" class="fil45" points="392.87,403.88 514.65,486.77 501.72,487.48 "/>
     <polygon id="_181_180" class="fil106" points="392.87,403.88 504.3,487.34 491.29,487.98 "/>
     <polygon id="_182_181" class="fil101" points="392.87,403.88 493.89,487.85 480.81,488.43 "/>
     <polygon id="_183_182" class="fil67" points="392.87,403.88 483.42,488.32 470.27,488.83 "/>
     <polygon id="_184_183" class="fil27" points="392.87,403.88 472.9,488.73 459.68,489.18 "/>
     <polygon id="_185_184" class="fil28" points="392.87,403.88 462.33,489.09 449.06,489.48 "/>
     <polygon id="_186_185" class="fil29" points="392.87,403.88 451.71,489.4 438.4,489.73 "/>
     <polygon id="_187_186" class="fil102" points="392.87,403.88 441.06,489.66 427.71,489.92 "/>
     <polygon id="_188_187" class="fil86" points="392.87,403.88 430.38,489.87 417.01,490.06 "/>
     <polygon id="_189_188" class="fil4" points="392.87,403.88 419.68,490.03 406.28,490.16 "/>
     <polygon id="_190_189" class="fil107" points="392.87,403.88 408.96,490.13 395.55,490.19 "/>
     <polygon id="_191_190" class="fil57" points="392.87,403.88 398.24,490.18 384.82,490.18 "/>
     <polygon id="_192_191" class="fil49" points="392.87,403.88 387.51,490.18 374.1,490.12 "/>
     <polygon id="_193_192" class="fil75" points="392.87,403.88 376.78,490.13 363.38,490 "/>
     <polygon id="_194_193" class="fil67" points="392.87,403.88 366.06,490.03 352.68,489.83 "/>
     <polygon id="_195_194" class="fil47" points="392.87,403.88 355.36,489.87 342.01,489.61 "/>
     <polygon id="_196_195" class="fil94" points="392.87,403.88 344.68,489.66 331.37,489.34 "/>
     <polygon id="_197_196" class="fil10" points="392.87,403.88 334.03,489.4 320.76,489.01 "/>
     <polygon id="_198_197" class="fil83" points="392.87,403.88 323.41,489.09 310.2,488.64 "/>
     <polygon id="_199_198" class="fil58" points="392.87,403.88 312.84,488.73 299.68,488.21 "/>
     <polygon id="_200_199" class="fil108" points="392.87,403.88 302.32,488.32 289.23,487.74 "/>
     <polygon id="_201_200" class="fil13" points="392.87,403.88 291.85,487.85 278.83,487.21 "/>
     <polygon id="_202_201" class="fil109" points="392.87,403.88 281.44,487.34 268.51,486.63 "/>
     <polygon id="_203_202" class="fil78" points="392.87,403.88 271.1,486.77 258.26,486 "/>
     <polygon id="_204_203" class="fil62" points="392.87,403.88 260.83,486.16 248.09,485.33 "/>
     <polygon id="_205_204" class="fil110" points="392.87,403.88 250.64,485.49 238.01,484.6 "/>
     <polygon id="_206_205" class="fil105" points="392.87,403.88 240.53,484.78 228.02,483.83 "/>
     <polygon id="_207_206" class="fil80" points="392.87,403.88 230.52,484.02 218.13,483 "/>
     <polygon id="_208_207" class="fil41" points="392.87,403.88 220.61,483.21 208.34,482.13 "/>
     <polygon id="_209_208" class="fil42" points="392.87,403.88 210.8,482.35 198.67,481.22 "/>
     <polygon id="_210_209" class="fil110" points="392.87,403.88 201.1,481.44 189.12,480.25 "/>
     <polygon id="_211_210" class="fil81" points="392.87,403.88 191.51,480.49 179.68,479.24 "/>
     <polygon id="_212_211" class="fil111" points="392.87,403.88 182.05,479.49 170.38,478.19 "/>
     <polygon id="_213_212" class="fil24" points="392.87,403.88 172.71,478.45 161.21,477.09 "/>
     <polygon id="_214_213" class="fil11" points="392.87,403.88 163.51,477.36 152.17,475.94 "/>
     <polygon id="_215_214" class="fil46" points="392.87,403.88 154.44,476.23 143.29,474.75 "/>
     <polygon id="_216_215" class="fil112" points="392.87,403.88 145.52,475.05 134.55,473.52 "/>
     <polygon id="_217_216" class="fil92" points="392.87,403.88 136.75,473.83 125.97,472.25 "/>
     <polygon id="_218_217" class="fil113" points="392.87,403.88 128.13,472.57 117.55,470.94 "/>
     <polygon id="_219_218" class="fil29" points="392.87,403.88 119.67,471.26 109.3,469.58 "/>
     <polygon id="_220_219" class="fil86" points="392.87,403.88 111.37,469.92 101.21,468.19 "/>
     <polygon id="_221_220" class="fil53" points="392.87,403.88 103.25,468.54 93.31,466.76 "/>
     <polygon id="_222_221" class="fil114" points="392.87,403.88 95.3,467.11 85.58,465.29 "/>
     <polygon id="_223_222" class="fil56" points="392.87,403.88 87.52,465.65 78.04,463.78 "/>
     <polygon id="_224_223" class="fil56" points="392.87,403.88 79.94,464.15 70.69,462.24 "/>
     <polygon id="_225_224" class="fil35" points="392.87,403.88 72.54,462.62 63.53,460.66 "/>
     <polygon id="_226_225" class="fil32" points="392.87,403.88 65.33,461.05 56.57,459.05 "/>
     <polygon id="_227_226" class="fil115" points="392.87,403.88 58.32,459.45 49.81,457.4 "/>
     <polygon id="_228_227" class="fil116" points="392.87,403.88 51.51,457.81 43.26,455.72 "/>
     <polygon id="_229_228" class="fil69" points="392.87,403.88 44.91,456.14 36.92,454.01 "/>
     <polygon id="_230_229" class="fil107" points="392.87,403.88 38.52,454.44 30.8,452.27 "/>
     <polygon id="_231_230" class="fil57" points="392.87,403.88 32.34,452.71 24.89,450.5 "/>
     <polygon id="_232_231" class="fil38" points="392.87,403.88 26.38,450.94 19.2,448.71 "/>
     <polygon id="_233_232" class="fil117" points="392.87,403.88 20.64,449.15 13.74,446.88 "/>
     <polygon id="_234_233" class="fil93" points="392.87,403.88 15.12,447.34 8.51,445.03 "/>
     <polygon id="_235_234" class="fil9" points="392.87,403.88 9.83,445.49 3.51,443.16 "/>
     <polygon id="_236_235" class="fil84" points="392.87,403.88 4.77,443.63 -1.26,441.26 "/>
     <polygon id="_237_236" class="fil83" points="392.87,403.88 -0.05,441.73 -5.79,439.34 "/>
     <polygon id="_238_237" class="fil58" points="392.87,403.88 -4.64,439.82 -10.08,437.4 "/>
     <polygon id="_239_238" class="fil40" points="392.87,403.88 -8.99,437.88 -14.12,435.44 "/>
     <polygon id="_240_239" class="fil111" points="392.87,403.88 -13.09,435.93 -17.92,433.46 "/>
     <polygon id="_241_240" class="fil22" points="392.87,403.88 -16.96,433.95 -21.48,431.46 "/>
     <polygon id="_242_241" class="fil81" points="392.87,403.88 -20.57,431.95 -24.78,429.44 "/>
     <polygon id="_243_242" class="fil15" points="392.87,403.88 -23.94,429.94 -27.83,427.41 "/>
     <polygon id="_244_243" class="fil118" points="392.87,403.88 -27.05,427.92 -30.63,425.36 "/>
     <polygon id="_245_244" class="fil79" points="392.87,403.88 -29.91,425.87 -33.17,423.31 "/>
     <polygon id="_246_245" class="fil110" points="392.87,403.88 -32.52,423.82 -35.46,421.24 "/>
     <polygon id="_247_246" class="fil99" points="392.87,403.88 -34.87,421.75 -37.49,419.16 "/>
     <polygon id="_248_247" class="fil20" points="392.87,403.88 -36.97,419.68 -39.26,417.07 "/>
     <polygon id="_249_248" class="fil97" points="392.87,403.88 -38.8,417.59 -40.77,414.97 "/>
     <polygon id="_250_249" class="fil42" points="392.87,403.88 -40.38,415.49 -42.02,412.86 "/>
     <polygon id="_251_250" class="fil80" points="392.87,403.88 -41.69,413.39 -43,410.75 "/>
     <polygon id="_252_251" class="fil60" points="392.87,403.88 -42.74,411.28 -43.73,408.64 "/>
     <polygon id="_253_252" class="fil18" points="392.87,403.88 -43.53,409.17 -44.19,406.52 "/>
     <polygon id="_254_253" class="fil119" points="392.87,403.88 -44.06,407.05 -44.39,404.41 "/>
     <polygon id="_255_254" class="fil120" points="392.87,403.88 -44.32,404.94 -44.32,402.82 "/>
    </g>
   </g>
   <path class="fil121" d="M165.87 387.4l7.12 4.12 7.13 4.11 0 8.24 0 8.24 -7.13 4.11 -7.12 4.12 -7.14 -4.12 -7.13 -4.11 0 -8.24 0 -8.24 7.13 -4.11 7.14 -4.12zm454.02 0l7.13 4.12 7.13 4.11 0 8.24 0 8.24 -7.13 4.11 -7.13 4.12 -7.14 -4.12 -7.13 -4.11 0 -8.24 0 -8.24 7.13 -4.11 7.14 -4.12z"/>
  </g>
  <g id="_2735582519776">
   <path class="fil2" d="M1065.08 234.83c19.38,0 35.85,4.43 49.4,13.3 13.55,8.87 22.96,19.9 28.24,33.08l-43.6 30.41c-7.5,-14.19 -18.73,-21.29 -33.71,-21.29 -7.05,0 -12.88,1.84 -17.51,5.51 -4.63,3.68 -6.94,8.68 -6.94,15.02 0,7.35 3.25,13.24 9.75,17.67 6.5,4.44 17.79,9.95 33.87,16.54 21.14,8.87 36.84,19.32 47.08,31.36 10.24,12.04 15.37,28.83 15.37,50.37 0,26.61 -7.83,47.52 -23.46,62.72 -15.65,15.21 -37.01,22.81 -64.1,22.81 -30.84,0 -58.27,-9.12 -82.28,-27.37l23.46 -52.46c19.39,15.97 39.76,23.95 61.13,23.95 19.16,0 28.74,-7.86 28.74,-23.57 0,-7.6 -2.81,-13.49 -8.42,-17.67 -5.62,-4.19 -16.8,-9.95 -33.54,-17.3 -21.58,-9.63 -37.61,-20.34 -48.08,-32.12 -10.45,-11.79 -15.69,-28.07 -15.69,-48.85 0,-25.34 7.44,-45.36 22.31,-60.06 14.86,-14.7 34.19,-22.05 57.98,-22.05zm230.63 80.21l51.21 0 0 193.49 -51.21 0 0 -22.05c-13.88,17.23 -31.28,25.85 -52.21,25.85 -20.93,0 -36.67,-7.09 -47.25,-21.29 -10.57,-14.19 -15.86,-34.46 -15.86,-60.82l0 -115.18 51.22 0 0 106.82c0,25.09 9.69,37.63 29.07,37.63 13.65,0 25.34,-7.09 35.03,-21.29l0 -123.16zm196.59 -3.42c22.91,0 41.47,9.06 55.68,27.18 14.2,18.12 21.31,42.38 21.31,72.79 0,29.4 -7.82,53.48 -23.46,72.23 -15.65,18.75 -36.02,28.13 -61.13,28.13 -17.62,0 -32.82,-5.07 -45.6,-15.2l0 91.61 -51.21 0 0 -272.94 51.21 0 0 23.95c5.07,-8.62 12.29,-15.4 21.65,-20.34 9.36,-4.94 19.87,-7.41 31.55,-7.41zm-16.52 147.49c12.34,0 22.14,-4.24 29.41,-12.73 7.26,-8.49 10.9,-20.09 10.9,-34.79 0,-14.44 -3.52,-25.85 -10.57,-34.21 -7.05,-8.36 -16.53,-12.54 -28.42,-12.54 -15.64,0 -28.52,8.49 -38.66,25.47l0 58.54c10.14,6.84 22.58,10.26 37.34,10.26zm228.64 -147.49c22.91,0 41.47,9.06 55.68,27.18 14.2,18.12 21.31,42.38 21.31,72.79 0,29.4 -7.82,53.48 -23.46,72.23 -15.64,18.75 -36.02,28.13 -61.13,28.13 -17.62,0 -32.82,-5.07 -45.59,-15.2l0 91.61 -51.22 0 0 -272.94 51.22 0 0 23.95c5.06,-8.62 12.28,-15.4 21.64,-20.34 9.36,-4.94 19.88,-7.41 31.55,-7.41zm-16.51 147.49c12.33,0 22.13,-4.24 29.4,-12.73 7.27,-8.49 10.9,-20.09 10.9,-34.79 0,-14.44 -3.52,-25.85 -10.57,-34.21 -7.05,-8.36 -16.52,-12.54 -28.41,-12.54 -15.65,0 -28.53,8.49 -38.66,25.47l0 58.54c10.13,6.84 22.58,10.26 37.34,10.26zm204.51 51.7c-28.19,0 -48.78,-6.71 -61.78,-20.15 -13,-13.43 -19.49,-34.59 -19.49,-63.48l0 -204.52 51.21 0 0 196.16c0,12.16 3.25,21.47 9.74,27.94 6.5,6.46 15.81,9.69 27.93,9.69l-5.63 54.36 -1.98 0zm135.8 -195.39l52.87 0 -64.44 191.21c-9.47,29.14 -20.76,50.37 -33.86,63.67 -13.11,13.31 -30.34,19.96 -51.72,19.96l-6.27 0 -9.25 -51.7 1.65 0c11.23,0 20.65,-2.66 28.25,-7.98 7.6,-5.32 14.05,-14.95 19.33,-28.89l-68.39 -186.27 55.83 0 39.32 120.5 36.68 -120.5z"/>
   <path class="fil2" d="M2274.16 453.41l101.43 0 0 55.12 -176.11 0 0 -35.35 99.79 -179.05 -92.85 0 0 -55.5 167.85 0 0 35.35 -100.11 179.43zm281.33 30.6c-17.28,18.88 -39.59,28.32 -66.91,28.32 -27.31,0 -49.61,-9.44 -66.9,-28.32 -17.29,-18.88 -25.94,-42.89 -25.94,-72.04 0,-29.14 8.65,-53.15 25.94,-72.03 17.29,-18.88 39.59,-28.32 66.9,-28.32 27.32,0 49.63,9.44 66.91,28.32 17.3,18.88 25.94,42.89 25.94,72.03 0,29.15 -8.64,53.16 -25.94,72.04zm-95.81 -38.2c7.37,8.61 17.01,12.92 28.9,12.92 11.9,0 21.54,-4.37 28.92,-13.11 7.38,-8.75 11.07,-20.09 11.07,-34.03 0,-13.68 -3.69,-24.83 -11.07,-33.45 -7.38,-8.61 -16.9,-12.92 -28.59,-12.92 -11.89,0 -21.58,4.31 -29.07,12.92 -7.49,8.62 -11.23,19.9 -11.23,33.83 0,13.94 3.69,25.22 11.07,33.84zm256.56 -134.57c20.7,0 36.29,7.03 46.75,21.1 10.47,14.06 15.7,34.27 15.7,60.63l0 115.56 -51.21 0 0 -106.82c0,-25.34 -9.48,-38.01 -28.42,-38.01 -13.43,0 -25.33,7.22 -35.68,21.66l0 123.17 -51.22 0 0 -193.11 51.22 0 0 21.67c13.88,-17.24 31.49,-25.85 52.86,-25.85zm258.38 107.58l0 9.12 -113.99 0c3.52,23.82 18.61,35.73 45.27,35.73 18.28,0 34.91,-3.67 49.89,-11.02l10.57 45.62c-17.84,9.37 -39.21,14.06 -64.1,14.06 -27.97,0 -50.6,-9.25 -67.89,-27.75 -17.3,-18.5 -25.95,-42.57 -25.95,-72.23 0,-31.42 7.94,-56.07 23.79,-73.93 15.86,-17.87 36.24,-26.8 61.13,-26.8 24.01,0 43.56,9.31 58.65,27.94 15.08,18.62 22.63,45.04 22.63,79.26zm-112.99 -31.55l61.45 0c-1.1,-9.38 -4.58,-16.92 -10.41,-22.62 -5.84,-5.71 -12.28,-8.56 -19.33,-8.56 -7.93,0 -14.64,2.79 -20.15,8.37 -5.51,5.57 -9.37,13.18 -11.56,22.81z"/>
  </g>
 </g>
</svg>
